<svg width="32" height="32" viewBox="0 0 32 32" xmlns="http://www.w3.org/2000/svg">
  <defs>
    <style>
      .bg { fill: #1e3a8a; }
      .gold { fill: #fbbf24; }
      .gold-dark { fill: #f59e0b; }
      .white { fill: #ffffff; stroke: #ffffff; }
      .gold-stroke { stroke: #f59e0b; stroke-width: 0.5; }
    </style>
  </defs>
  
  <!-- Background with rounded corners -->
  <rect width="32" height="32" rx="4" class="bg"/>
  
  <!-- Bank building structure -->
  <!-- Roof/Pediment -->
  <path d="M4 10 L16 4 L28 10 L26 10 L16 6 L6 10 Z" class="gold gold-stroke"/>
  
  <!-- Columns -->
  <rect x="6" y="10" width="2" height="12" class="gold"/>
  <rect x="15" y="10" width="2" height="12" class="gold"/>
  <rect x="24" y="10" width="2" height="12" class="gold"/>
  
  <!-- Base platform -->
  <rect x="4" y="22" width="24" height="2" class="gold"/>
  <rect x="3" y="24" width="26" height="2" class="gold-dark"/>
  
  <!-- Hourglass in center -->
  <g transform="translate(16, 16)">
    <!-- Hourglass outline -->
    <ellipse cx="0" cy="-4" rx="3" ry="1.5" fill="none" stroke="#ffffff" stroke-width="0.8"/>
    <ellipse cx="0" cy="4" rx="3" ry="1.5" fill="none" stroke="#ffffff" stroke-width="0.8"/>
    
    <!-- Hourglass sides -->
    <path d="M-3 -4 L-1 0 L-3 4" fill="none" stroke="#ffffff" stroke-width="0.8"/>
    <path d="M3 -4 L1 0 L3 4" fill="none" stroke="#ffffff" stroke-width="0.8"/>
    
    <!-- Sand in top chamber -->
    <ellipse cx="0" cy="-3.2" rx="2.2" ry="1" class="gold"/>
    
    <!-- Sand in bottom chamber -->
    <ellipse cx="0" cy="3.2" rx="1.8" ry="0.8" class="gold-dark"/>
    
    <!-- Falling sand -->
    <path d="M-0.8 -0.5 L0 0.8 L0.8 -0.5 Z" class="gold"/>
    <circle cx="0" cy="0" r="0.3" class="gold"/>
  </g>
  
  <!-- Subtle highlights on columns -->
  <rect x="6.5" y="10" width="0.5" height="12" fill="#fde047" opacity="0.6"/>
  <rect x="15.5" y="10" width="0.5" height="12" fill="#fde047" opacity="0.6"/>
  <rect x="24.5" y="10" width="0.5" height="12" fill="#fde047" opacity="0.6"/>
</svg>
